<svg xmlns="http://www.w3.org/2000/svg" width="375" viewBox="0 0 375 375" height="375" version="1.0"><path fill="#FFF" d="M-37.5 -37.5H412.5V412.5H-37.5z"/><path fill="#FFF" d="M-37.5 -37.5H412.5V412.5H-37.5z"/><path d="M 177.726562 -0.0195312 C 226.804688 -0.0195312 271.238281 19.859375 303.398438 51.996094 C 335.5625 84.132812 355.457031 128.53125 355.457031 177.570312 C 355.457031 226.609375 335.558594 271.007812 303.398438 303.148438 C 271.238281 335.285156 226.804688 355.164062 177.726562 355.164062 C 128.652344 355.164062 84.21875 335.285156 52.054688 303.148438 C 19.894531 271.007812 0 226.609375 0 177.570312 C 0 128.53125 19.894531 84.132812 52.054688 51.996094 C 84.21875 19.859375 128.648438 -0.0195312 177.726562 -0.0195312 Z M 295.4375 59.953125 C 265.3125 29.851562 223.695312 11.234375 177.726562 11.234375 C 131.757812 11.234375 90.140625 29.851562 60.015625 59.953125 C 29.894531 90.050781 11.261719 131.636719 11.261719 177.570312 C 11.261719 223.503906 29.894531 265.089844 60.015625 295.191406 C 90.140625 325.289062 131.757812 343.910156 177.726562 343.910156 C 223.695312 343.910156 265.3125 325.289062 295.4375 295.191406 C 325.558594 265.089844 344.191406 223.503906 344.191406 177.570312 C 344.191406 131.636719 325.5625 90.050781 295.4375 59.953125 Z M 295.4375 59.953125"/><path d="M 177.726562 30.742188 C 190.714844 30.742188 202.476562 36.003906 210.988281 44.511719 C 219.5 53.015625 224.765625 64.769531 224.765625 77.746094 C 224.765625 90.722656 219.5 102.476562 210.988281 110.980469 C 202.476562 119.484375 190.714844 124.746094 177.726562 124.746094 C 164.738281 124.746094 152.976562 119.484375 144.464844 110.980469 C 135.953125 102.476562 130.6875 90.722656 130.6875 77.746094 C 130.6875 64.769531 135.953125 53.015625 144.464844 44.511719 C 152.976562 36.003906 164.738281 30.742188 177.726562 30.742188 Z M 203.027344 52.464844 C 196.550781 46 187.605469 41.996094 177.726562 41.996094 C 167.847656 41.996094 158.902344 46 152.425781 52.464844 C 145.953125 58.933594 141.949219 67.875 141.949219 77.746094 C 141.949219 87.617188 145.953125 96.554688 152.425781 103.023438 C 158.902344 109.492188 167.847656 113.492188 177.726562 113.492188 C 187.605469 113.492188 196.550781 109.492188 203.027344 103.023438 C 209.5 96.554688 213.503906 87.617188 213.503906 77.746094 C 213.503906 67.875 209.5 58.933594 203.027344 52.464844 Z M 203.027344 52.464844"/><path d="M 324.667969 177.570312 C 324.667969 190.546875 319.402344 202.300781 310.890625 210.804688 C 302.378906 219.308594 290.617188 224.574219 277.628906 224.574219 C 264.640625 224.574219 252.878906 219.308594 244.367188 210.804688 C 235.855469 202.300781 230.589844 190.546875 230.589844 177.570312 C 230.589844 164.59375 235.855469 152.839844 244.367188 144.335938 C 252.878906 135.832031 264.640625 130.566406 277.628906 130.566406 C 290.617188 130.566406 302.378906 135.832031 310.890625 144.335938 C 319.402344 152.839844 324.667969 164.59375 324.667969 177.570312 Z M 302.925781 202.847656 C 309.402344 196.382812 313.40625 187.445312 313.40625 177.570312 C 313.40625 167.699219 309.402344 158.757812 302.925781 152.292969 C 296.453125 145.824219 287.507812 141.820312 277.628906 141.820312 C 267.75 141.820312 258.804688 145.824219 252.332031 152.292969 C 245.859375 158.757812 241.851562 167.699219 241.851562 177.570312 C 241.851562 187.445312 245.859375 196.382812 252.332031 202.847656 C 258.804688 209.316406 267.75 213.320312 277.628906 213.320312 C 287.507812 213.320312 296.457031 209.316406 302.925781 202.847656 Z M 302.925781 202.847656"/><path d="M 177.726562 324.398438 C 164.738281 324.398438 152.976562 319.136719 144.464844 310.632812 C 135.953125 302.125 130.6875 290.375 130.6875 277.398438 C 130.6875 264.417969 135.953125 252.667969 144.464844 244.160156 C 152.976562 235.65625 164.738281 230.394531 177.726562 230.394531 C 190.714844 230.394531 202.476562 235.65625 210.988281 244.160156 C 219.5 252.667969 224.765625 264.417969 224.765625 277.398438 C 224.765625 290.375 219.5 302.125 210.988281 310.632812 C 202.476562 319.136719 190.714844 324.398438 177.726562 324.398438 Z M 152.425781 302.675781 C 158.902344 309.144531 167.847656 313.144531 177.726562 313.144531 C 187.605469 313.144531 196.550781 309.144531 203.027344 302.675781 C 209.5 296.207031 213.503906 287.269531 213.503906 277.398438 C 213.503906 267.523438 209.5 258.585938 203.027344 252.117188 C 196.550781 245.648438 187.605469 241.648438 177.726562 241.648438 C 167.847656 241.648438 158.902344 245.648438 152.425781 252.117188 C 145.953125 258.585938 141.949219 267.523438 141.949219 277.398438 C 141.949219 287.269531 145.953125 296.207031 152.425781 302.675781 Z M 152.425781 302.675781"/><path d="M 30.785156 177.570312 C 30.785156 164.59375 36.050781 152.839844 44.5625 144.335938 C 53.074219 135.832031 64.835938 130.566406 77.824219 130.566406 C 90.8125 130.566406 102.574219 135.832031 111.085938 144.335938 C 119.597656 152.839844 124.863281 164.59375 124.863281 177.570312 C 124.863281 190.546875 119.597656 202.300781 111.085938 210.804688 C 102.574219 219.308594 90.8125 224.574219 77.824219 224.574219 C 64.835938 224.574219 53.074219 219.308594 44.5625 210.804688 C 36.050781 202.300781 30.785156 190.546875 30.785156 177.570312 Z M 52.527344 152.292969 C 46.054688 158.757812 42.046875 167.699219 42.046875 177.570312 C 42.046875 187.445312 46.054688 196.382812 52.527344 202.847656 C 59 209.316406 67.945312 213.320312 77.824219 213.320312 C 87.703125 213.320312 96.648438 209.316406 103.121094 202.847656 C 109.597656 196.382812 113.601562 187.445312 113.601562 177.570312 C 113.601562 167.699219 109.597656 158.757812 103.121094 152.292969 C 96.648438 145.824219 87.703125 141.820312 77.824219 141.820312 C 67.945312 141.820312 59 145.824219 52.527344 152.292969 Z M 52.527344 152.292969"/><path d="M 177.726562 147.792969 C 194.175781 147.792969 207.527344 161.140625 207.527344 177.570312 C 207.527344 194.007812 194.171875 207.351562 177.726562 207.351562 C 161.269531 207.351562 147.925781 194.015625 147.925781 177.570312 C 147.925781 161.132812 161.277344 147.792969 177.726562 147.792969 Z M 177.726562 159.046875 C 167.484375 159.046875 159.1875 167.328125 159.1875 177.570312 C 159.1875 187.804688 167.484375 196.097656 177.726562 196.097656 C 187.984375 196.097656 196.265625 187.804688 196.265625 177.570312 C 196.265625 167.324219 187.96875 159.046875 177.726562 159.046875 Z M 177.726562 159.046875"/><path d="M 183.875 346.339844 C 182.113281 343.792969 178.617188 343.152344 176.066406 344.914062 C 173.515625 346.671875 172.875 350.167969 174.636719 352.714844 C 203.367188 394.273438 256.933594 373.398438 307.414062 353.726562 C 347.359375 338.160156 385.199219 323.414062 401.871094 343.808594 C 403.824219 346.210938 407.359375 346.578125 409.765625 344.621094 C 412.171875 342.667969 412.535156 339.136719 410.582031 336.734375 C 388.714844 309.988281 347.175781 326.175781 303.324219 343.265625 C 256.859375 361.375 207.550781 380.585938 183.875 346.339844 Z M 183.875 346.339844"/></svg>